<svg version="1.1" viewBox="0.0 0.0 192.0 192.0" fill="none" stroke="none" stroke-linecap="square" stroke-miterlimit="10" xmlns:xlink="http://www.w3.org/1999/xlink" xmlns="http://www.w3.org/2000/svg"><clipPath id="p.0"><path d="m0 0l192.0 0l0 192.0l-192.0 0l0 -192.0z" clip-rule="nonzero"/></clipPath><g clip-path="url(#p.0)"><path fill="#000000" fill-opacity="0.0" d="m0 0l192.0 0l0 192.0l-192.0 0z" fill-rule="evenodd"/><path fill="#33dd99" d="m19.115486 73.519684l0 0c0 -14.594231 11.830963 -26.425194 26.425198 -26.425194l0 0c7.008396 0 13.729748 2.7840729 18.685436 7.7397575c4.955681 4.9556885 7.7397614 11.677036 7.7397614 18.685436l0 0c0 14.594231 -11.830967 26.425201 -26.425198 26.425201l0 0c-14.594234 0 -26.425198 -11.830971 -26.425198 -26.425201zm13.212597 0l0 0c0 7.297119 5.9154816 13.212601 13.212601 13.212601c7.2971153 0 13.212597 -5.9154816 13.212597 -13.212601c0 -7.297119 -5.9154816 -13.212597 -13.212597 -13.212597l0 0c-7.297119 0 -13.212601 5.9154778 -13.212601 13.212597z" fill-rule="evenodd"/><path stroke="#33dd99" stroke-width="1.0" stroke-linejoin="round" stroke-linecap="butt" d="m19.115486 73.519684l0 0c0 -14.594231 11.830963 -26.425194 26.425198 -26.425194l0 0c7.008396 0 13.729748 2.7840729 18.685436 7.7397575c4.955681 4.9556885 7.7397614 11.677036 7.7397614 18.685436l0 0c0 14.594231 -11.830967 26.425201 -26.425198 26.425201l0 0c-14.594234 0 -26.425198 -11.830971 -26.425198 -26.425201zm13.212597 0l0 0c0 7.297119 5.9154816 13.212601 13.212601 13.212601c7.2971153 0 13.212597 -5.9154816 13.212597 -13.212601c0 -7.297119 -5.9154816 -13.212597 -13.212597 -13.212597l0 0c-7.297119 0 -13.212601 5.9154778 -13.212601 13.212597z" fill-rule="evenodd"/><path fill="#33dd99" d="m75.54855 64.20473l0 0c0 -19.743095 16.004944 -35.74803 35.74803 -35.74803l0 0c9.480972 0 18.573624 3.7662983 25.27768 10.470354c6.704056 6.704056 10.470352 15.796711 10.470352 25.27768l0 0c0 19.743088 -16.004929 35.74803 -35.74803 35.74803l0 0c-19.743088 0 -35.74803 -16.004944 -35.74803 -35.74803zm17.874016 0l0 0c0 9.871544 8.002472 17.874016 17.874016 17.874016c9.8715515 0 17.874023 -8.002472 17.874023 -17.874016c0 -9.871548 -8.002472 -17.87402 -17.874023 -17.87402l0 0c-9.871544 0 -17.874016 8.002472 -17.874016 17.87402z" fill-rule="evenodd"/><path stroke="#33dd99" stroke-width="1.0" stroke-linejoin="round" stroke-linecap="butt" d="m75.54855 64.20473l0 0c0 -19.743095 16.004944 -35.74803 35.74803 -35.74803l0 0c9.480972 0 18.573624 3.7662983 25.27768 10.470354c6.704056 6.704056 10.470352 15.796711 10.470352 25.27768l0 0c0 19.743088 -16.004929 35.74803 -35.74803 35.74803l0 0c-19.743088 0 -35.74803 -16.004944 -35.74803 -35.74803zm17.874016 0l0 0c0 9.871544 8.002472 17.874016 17.874016 17.874016c9.8715515 0 17.874023 -8.002472 17.874023 -17.874016c0 -9.871548 -8.002472 -17.87402 -17.874023 -17.87402l0 0c-9.871544 0 -17.874016 8.002472 -17.874016 17.87402z" fill-rule="evenodd"/><path fill="#33dd99" d="m26.879265 105.62205l109.29134 0l0 15.527557l-109.29134 0z" fill-rule="evenodd"/><path stroke="#33dd99" stroke-width="1.0" stroke-linejoin="round" stroke-linecap="butt" d="m26.879265 105.62205l109.29134 0l0 15.527557l-109.29134 0z" fill-rule="evenodd"/><path fill="#33dd99" d="m26.879265 126.8189l109.29134 0l0 15.52755l-109.29134 0z" fill-rule="evenodd"/><path stroke="#33dd99" stroke-width="1.0" stroke-linejoin="round" stroke-linecap="butt" d="m26.879265 126.8189l109.29134 0l0 15.52755l-109.29134 0z" fill-rule="evenodd"/><path fill="#33dd99" d="m26.879265 148.01575l109.29134 0l0 15.527557l-109.29134 0z" fill-rule="evenodd"/><path stroke="#33dd99" stroke-width="1.0" stroke-linejoin="round" stroke-linecap="butt" d="m26.879265 148.01575l109.29134 0l0 15.527557l-109.29134 0z" fill-rule="evenodd"/><path fill="#33dd99" d="m173.65092 142.34645l-31.811035 -7.9527435l0 -26.488197l31.811035 -7.952751z" fill-rule="evenodd"/><path stroke="#33dd99" stroke-width="1.0" stroke-linejoin="round" stroke-linecap="butt" d="m173.65092 142.34645l-31.811035 -7.9527435l0 -26.488197l31.811035 -7.952751z" fill-rule="evenodd"/></g></svg>